<svg xmlns="http://www.w3.org/2000/svg" width="32" height="32"><path fill="#afb1b8" d="M16.145 15.628a1.004 1.004 0 01-.206-.677v-.982c0-.301.068-.53.205-.686s.371-.234.703-.234c.312 0 .534.067.665.2.143.17.213.378.197.587v.231h-.559v-.234a1.177 1.177 0 00-.016-.229.22.22 0 00-.08-.136.322.322 0 00-.202-.053.342.342 0 00-.213.056.264.264 0 00-.093.15c-.016.08-.023.161-.022.243v1.191a.608.608 0 00.072.335c.028.035.066.063.111.081s.095.024.144.019a.302.302 0 00.198-.054.235.235 0 00.083-.145c.013-.079.019-.159.017-.239v-.242h.559v.221a.897.897 0 01-.193.617c-.128.146-.347.219-.668.219s-.564-.078-.702-.24zM18.47 15.638c-.141-.153-.212-.375-.212-.67v-1.032c0-.292.071-.512.212-.662s.377-.224.708-.224c.328 0 .563.075.704.224s.213.37.213.662v1.032c0 .292-.072.515-.215.669s-.377.231-.702.231c-.325 0-.566-.078-.708-.23zm.968-.247a.567.567 0 00.067-.306v-1.264a.566.566 0 00-.066-.3c-.028-.036-.068-.065-.114-.082s-.097-.024-.147-.018c-.05-.006-.101 0-.148.018s-.086.046-.115.082a.545.545 0 00-.067.3v1.27a.57.57 0 00.067.306.363.363 0 00.262.103c.049 0 .098-.009.144-.027s.085-.043.118-.076v-.006zM20.767 13.08h.601l.452 1.905.463-1.905h.585l.059 2.749h-.433l-.046-1.911-.446 1.911h-.347l-.463-1.918-.043 1.918h-.437l.054-2.749zM23.602 13.08h.937c.54 0 .81.26.81.781 0 .499-.284.747-.852.747h-.319v1.222H23.6l.003-2.749zm.8 1.175c.057.006.115.002.17-.013s.105-.04.148-.074a.443.443 0 00.083-.31.846.846 0 00-.028-.25c-.008-.027-.023-.053-.043-.075s-.045-.041-.073-.055a.608.608 0 00-.258-.044h-.224v.822h.224zM26.182 13.08h.621l.637 2.749h-.539l-.126-.634h-.554l-.13.634h-.547l.637-2.749zm.531 1.797l-.216-1.154-.216 1.154h.433zM27.955 13.08h.405l.775 1.568V13.08h.48v2.749h-.385l-.779-1.637v1.637h-.496l.001-2.749zM30.739 14.782l-.644-1.697h.542l.393 1.09.369-1.09h.531l-.636 1.697v1.048h-.555v-1.048zM17.038 17.032v.144h-.472v1.117h-.198v-1.117h-.474v-.144h1.144zM18.517 18.293h-.153a.066.066 0 01-.043-.012.059.059 0 01-.025-.029l-.136-.3h-.655l-.136.3a.08.08 0 01-.021.034.07.07 0 01-.043.012h-.153l.578-1.261h.201l.585 1.256zm-.958-.468h.546l-.231-.513a.993.993 0 01-.043-.119l-.022.067-.021.053-.229.512zM19.514 18.169a.99.99 0 00.109 0 .75.75 0 00.176-.038l.077-.031v-.284h-.231c-.006 0-.011 0-.017-.002s-.01-.004-.014-.008c-.004-.003-.007-.006-.009-.01s-.003-.008-.003-.013v-.097h.449v.483a.795.795 0 01-.244.103 1 1 0 01-.145.026 1.893 1.893 0 01-.169.008.862.862 0 01-.291-.047.703.703 0 01-.231-.132.612.612 0 01-.149-.2.627.627 0 01-.053-.262.576.576 0 01.201-.464.7.7 0 01.231-.131.98.98 0 01.31-.047c.054 0 .108.004.161.011a.813.813 0 01.254.082c.035.02.069.042.101.066l-.056.078c-.004.007-.011.013-.019.017s-.017.007-.026.007a.075.075 0 01-.036-.01.822.822 0 01-.057-.03.582.582 0 00-.183-.062.901.901 0 00-.147-.011.672.672 0 00-.223.035.438.438 0 00-.278.257.585.585 0 000 .42.502.502 0 00.285.259c.074.022.151.03.229.025zM21.357 18.149h.631v.144h-.825v-1.261h.198l-.005 1.117zM22.645 18.293h-.198v-1.261h.198v1.261zM23.381 17.038a.1.1 0 01.03.023l.845.951a.338.338 0 010-.045V17.027h.172v1.266h-.099a.09.09 0 01-.043-.007.092.092 0 01-.031-.024l-.844-.95v.981h-.165v-1.261h.103c.011 0 .022.002.032.006zM25.885 17.032v.139h-.701v.416h.568v.134h-.568v.43h.701v.139h-.904v-1.258h.904zM5.161 9.244l8.781 2.153v7.543l-8.781-2.152V9.244zm-.563-.643v8.554l9.907 2.429v-8.553l-9.907-2.43z"/><path fill="#afb1b8" d="M9.908 23.555L0 21.124v-8.553l9.908 2.43v8.554z"/><path fill="#afb1b8" d="M4.762 9.148l8.667 2.126-3.686 3.183-8.668-2.127 3.687-3.182zm-.164-.547L0 12.571l9.908 2.43 4.597-3.97-9.907-2.43zM10.465 23.074l4.04-3.488-4.04-.991v4.48z"/></svg>