<svg xmlns="http://www.w3.org/2000/svg" width="32" height="32"><path fill="#afb1b8" d="M5.267 30.294a.098.098 0 01.06.024l.155.148c-.12.12-.269.216-.436.281a1.701 1.701 0 01-.619.101 1.66 1.66 0 01-.582-.094 1.266 1.266 0 01-.438-.266 1.189 1.189 0 01-.283-.411 1.373 1.373 0 01-.099-.527 1.223 1.223 0 01.408-.94c.132-.116.291-.207.465-.268.191-.064.394-.096.599-.094.19-.004.379.025.556.086.154.058.295.138.417.238l-.13.158a.132.132 0 01-.033.029.093.093 0 01-.052.012.119.119 0 01-.056-.017l-.07-.042-.097-.054a1.136 1.136 0 00-.306-.094 1.366 1.366 0 00-.231-.017 1.225 1.225 0 00-.43.071 1 1 0 00-.337.199.918.918 0 00-.219.317 1.042 1.042 0 00-.079.418c-.002.145.025.288.079.425.047.116.12.223.215.315a.878.878 0 00.322.195c.127.046.262.068.399.067.079.001.158-.003.237-.013a.944.944 0 00.512-.217.12.12 0 01.074-.027zM9.745 29.549c.002.179-.033.356-.105.524-.063.152-.163.291-.292.407s-.286.207-.458.267c-.38.126-.799.126-1.179 0a1.36 1.36 0 01-.456-.268 1.192 1.192 0 01-.295-.411c-.14-.339-.14-.71 0-1.05.066-.153.166-.293.295-.413.13-.112.285-.2.456-.258.379-.128.8-.128 1.179 0 .172.061.328.152.458.268.128.117.227.255.293.406.072.169.107.347.105.527zm-.407 0a1.11 1.11 0 00-.074-.421.863.863 0 00-.535-.514 1.365 1.365 0 00-.857 0 .912.912 0 00-.328.199.836.836 0 00-.209.315 1.23 1.23 0 000 .842.86.86 0 00.537.512c.276.09.581.09.857 0a.922.922 0 00.328-.197.872.872 0 00.207-.315 1.11 1.11 0 00.074-.421zM12.801 29.991l.041.094c.015-.034.029-.064.045-.094.015-.032.032-.063.05-.093l.991-1.565c.019-.027.037-.044.056-.049a.246.246 0 01.081-.008h.293v2.545h-.347V28.95v-.079a.646.646 0 010-.088l-.997 1.587c-.013.024-.033.044-.058.058s-.055.021-.085.021h-.056c-.03 0-.06-.007-.085-.021s-.046-.034-.058-.058l-1.026-1.597v2.043h-.335v-2.54h.293a.272.272 0 01.081.008c.024.01.043.028.054.049l1.012 1.567c.02.029.037.059.05.091zM16.529 29.864v.953h-.388v-2.542h.865c.163-.003.326.016.483.056a.97.97 0 01.341.158.655.655 0 01.194.249.766.766 0 01.066.325.727.727 0 01-.072.325.698.698 0 01-.209.254.981.981 0 01-.343.168 1.63 1.63 0 01-.467.059l-.469-.007zm0-.272h.469a1.08 1.08 0 00.3-.039.645.645 0 00.217-.11.487.487 0 00.179-.382c.004-.071-.009-.141-.039-.207s-.076-.125-.136-.174a.834.834 0 00-.522-.136h-.469v1.048zM21.741 30.821h-.306a.139.139 0 01-.085-.024.157.157 0 01-.05-.059l-.264-.615h-1.324l-.273.615a.14.14 0 01-.049.057.148.148 0 01-.087.025h-.306l1.163-2.546h.403l1.179 2.546zm-1.92-.945h1.093l-.461-1.036a1.755 1.755 0 01-.087-.239l-.045.133c-.014.04-.029.078-.043.108l-.458 1.034zM23.416 28.288a.174.174 0 01.058.045l1.697 1.919v-.089-1.887h.347v2.545h-.194a.174.174 0 01-.141-.062l-1.695-1.917a.646.646 0 010 .088v1.891h-.347v-2.545h.206a.167.167 0 01.07.012zM28.375 29.809v1.011h-.388v-1.011l-1.072-1.533h.347a.133.133 0 01.083.022.216.216 0 01.052.057l.671.989c.027.042.05.081.07.118s.035.072.049.108l.05-.11a.888.888 0 01.066-.116l.661-.996a.284.284 0 01.05-.054.128.128 0 01.083-.025h.351l-1.074 1.54zM12.609 24.004c.169.019.339.034.512.047 2.616-1.017 4.829-2.681 6.363-4.785s2.319-4.553 2.259-7.043L18.86 9.718c.586 2.651.312 5.39-.792 7.913s-2.994 4.729-5.459 6.372z"/><path fill="#afb1b8" d="M11.579 23.888l.078.013c2.634-1.637 4.642-3.923 5.765-6.562s1.308-5.51.533-8.242l-4.106-3.568c1.661 2.933 2.33 6.215 1.928 9.464s-1.857 6.334-4.196 8.893zM25.506 15.165c-.698 2.735-2.392 5.202-4.832 7.035a15.392 15.392 0 01-2.296 1.432c1.986-.507 3.812-1.404 5.337-2.621s2.707-2.723 3.456-4.4l-1.665-1.445z"/><path fill="#afb1b8" d="M24.853 14.763l-2.371-2.06c-.045 2.349-.814 4.644-2.226 6.648s-3.416 3.642-5.803 4.745h.012c.532 0 1.064-.028 1.592-.083 2.231-.791 4.202-2.05 5.737-3.664s2.586-3.533 3.06-5.586zM11.923 4.026L9.094 1.565c-2.529.849-4.704 2.342-6.24 4.282S.492 10.086.484 12.442c.009 2.603 1.018 5.128 2.865 7.177s4.429 3.504 7.335 4.135c2.594-2.746 4.113-6.14 4.336-9.688s-.862-7.065-3.097-10.04zM31.388 14.384c-.01-3.088-1.427-6.047-3.94-8.23s-5.919-3.414-9.473-3.423a15.073 15.073 0 00-4.803.777l17.32 15.048c.593-1.33.897-2.744.896-4.171z"/></svg>